<svg width="269" height="56" viewBox="0 0 269 56" fill="none" xmlns="http://www.w3.org/2000/svg">
<path d="M33.5156 37V17.0117H37.7539V33.5H45.8613V37H33.5156ZM55.2812 21.4004C57.332 21.4004 58.9043 21.847 59.998 22.7402C61.0918 23.6335 61.6387 24.9915 61.6387 26.8145V37H58.7266L57.9199 34.9219H57.8105C57.373 35.4688 56.9264 35.9154 56.4707 36.2617C56.015 36.6081 55.4909 36.8633 54.8984 37.0273C54.306 37.1914 53.5859 37.2734 52.7383 37.2734C51.8359 37.2734 51.0247 37.1003 50.3047 36.7539C49.5938 36.4076 49.0332 35.8789 48.623 35.168C48.2129 34.4479 48.0078 33.5365 48.0078 32.4336C48.0078 30.8112 48.5775 29.6172 49.7168 28.8516C50.8561 28.0768 52.5651 27.6484 54.8438 27.5664L57.4961 27.4844V26.8145C57.4961 26.0124 57.2865 25.4245 56.8672 25.0508C56.4479 24.6771 55.8646 24.4902 55.1172 24.4902C54.3789 24.4902 53.6543 24.5951 52.9434 24.8047C52.2324 25.0143 51.5215 25.2786 50.8105 25.5977L49.4297 22.7812C50.2409 22.3529 51.1478 22.0156 52.1504 21.7695C53.1621 21.5234 54.2057 21.4004 55.2812 21.4004ZM57.4961 29.918L55.8828 29.9727C54.5339 30.0091 53.5951 30.2507 53.0664 30.6973C52.5469 31.1439 52.2871 31.7318 52.2871 32.4609C52.2871 33.099 52.474 33.5547 52.8477 33.8281C53.2214 34.0924 53.709 34.2246 54.3105 34.2246C55.2038 34.2246 55.9557 33.9603 56.5664 33.4316C57.1862 32.903 57.4961 32.151 57.4961 31.1758V29.918ZM74.4766 21.4277C74.6862 21.4277 74.9277 21.4414 75.2012 21.4688C75.4837 21.487 75.7116 21.5143 75.8848 21.5508L75.5703 25.4609C75.4336 25.4154 75.2376 25.3835 74.9824 25.3652C74.7363 25.3379 74.5221 25.3242 74.3398 25.3242C73.8021 25.3242 73.278 25.3926 72.7676 25.5293C72.2663 25.666 71.8151 25.8893 71.4141 26.1992C71.013 26.5 70.694 26.901 70.457 27.4023C70.2292 27.8945 70.1152 28.5007 70.1152 29.2207V37H65.9453V21.7148H69.1035L69.7188 24.2852H69.9238C70.2246 23.7656 70.5983 23.2917 71.0449 22.8633C71.5007 22.4258 72.0156 22.0794 72.5898 21.8242C73.1732 21.5599 73.8021 21.4277 74.4766 21.4277ZM84.9219 21.4004C86.9727 21.4004 88.5449 21.847 89.6387 22.7402C90.7324 23.6335 91.2793 24.9915 91.2793 26.8145V37H88.3672L87.5605 34.9219H87.4512C87.0137 35.4688 86.5671 35.9154 86.1113 36.2617C85.6556 36.6081 85.1315 36.8633 84.5391 37.0273C83.9466 37.1914 83.2266 37.2734 82.3789 37.2734C81.4766 37.2734 80.6654 37.1003 79.9453 36.7539C79.2344 36.4076 78.6738 35.8789 78.2637 35.168C77.8535 34.4479 77.6484 33.5365 77.6484 32.4336C77.6484 30.8112 78.2181 29.6172 79.3574 28.8516C80.4967 28.0768 82.2057 27.6484 84.4844 27.5664L87.1367 27.4844V26.8145C87.1367 26.0124 86.9271 25.4245 86.5078 25.0508C86.0885 24.6771 85.5052 24.4902 84.7578 24.4902C84.0195 24.4902 83.2949 24.5951 82.584 24.8047C81.873 25.0143 81.1621 25.2786 80.4512 25.5977L79.0703 22.7812C79.8815 22.3529 80.7884 22.0156 81.791 21.7695C82.8027 21.5234 83.8464 21.4004 84.9219 21.4004ZM87.1367 29.918L85.5234 29.9727C84.1745 30.0091 83.2357 30.2507 82.707 30.6973C82.1875 31.1439 81.9277 31.7318 81.9277 32.4609C81.9277 33.099 82.1146 33.5547 82.4883 33.8281C82.862 34.0924 83.3496 34.2246 83.9512 34.2246C84.8444 34.2246 85.5964 33.9603 86.207 33.4316C86.8268 32.903 87.1367 32.151 87.1367 31.1758V29.918ZM101.793 37.2734C100.28 37.2734 98.9902 37 97.9238 36.4531C96.8574 35.8971 96.0462 35.0404 95.4902 33.8828C94.9342 32.7253 94.6562 31.2441 94.6562 29.4395C94.6562 27.571 94.9707 26.0488 95.5996 24.873C96.2376 23.6882 97.1172 22.8177 98.2383 22.2617C99.3685 21.7057 100.676 21.4277 102.162 21.4277C103.219 21.4277 104.131 21.5326 104.896 21.7422C105.671 21.9427 106.346 22.1842 106.92 22.4668L105.689 25.6934C105.033 25.429 104.423 25.2148 103.857 25.0508C103.292 24.8776 102.727 24.791 102.162 24.791C101.433 24.791 100.827 24.9642 100.344 25.3105C99.8607 25.6478 99.5007 26.1582 99.2637 26.8418C99.0267 27.5254 98.9082 28.3822 98.9082 29.4121C98.9082 30.4238 99.0358 31.2624 99.291 31.9277C99.5462 32.5931 99.9154 33.0898 100.398 33.418C100.882 33.737 101.469 33.8965 102.162 33.8965C103.028 33.8965 103.798 33.7826 104.473 33.5547C105.147 33.3177 105.803 32.9896 106.441 32.5703V36.1387C105.803 36.5397 105.133 36.8268 104.432 37C103.739 37.1823 102.859 37.2734 101.793 37.2734ZM116.258 21.4004C118.309 21.4004 119.881 21.847 120.975 22.7402C122.068 23.6335 122.615 24.9915 122.615 26.8145V37H119.703L118.896 34.9219H118.787C118.35 35.4688 117.903 35.9154 117.447 36.2617C116.992 36.6081 116.467 36.8633 115.875 37.0273C115.283 37.1914 114.562 37.2734 113.715 37.2734C112.812 37.2734 112.001 37.1003 111.281 36.7539C110.57 36.4076 110.01 35.8789 109.6 35.168C109.189 34.4479 108.984 33.5365 108.984 32.4336C108.984 30.8112 109.554 29.6172 110.693 28.8516C111.833 28.0768 113.542 27.6484 115.82 27.5664L118.473 27.4844V26.8145C118.473 26.0124 118.263 25.4245 117.844 25.0508C117.424 24.6771 116.841 24.4902 116.094 24.4902C115.355 24.4902 114.631 24.5951 113.92 24.8047C113.209 25.0143 112.498 25.2786 111.787 25.5977L110.406 22.7812C111.217 22.3529 112.124 22.0156 113.127 21.7695C114.139 21.5234 115.182 21.4004 116.258 21.4004ZM118.473 29.918L116.859 29.9727C115.51 30.0091 114.572 30.2507 114.043 30.6973C113.523 31.1439 113.264 31.7318 113.264 32.4609C113.264 33.099 113.451 33.5547 113.824 33.8281C114.198 34.0924 114.686 34.2246 115.287 34.2246C116.18 34.2246 116.932 33.9603 117.543 33.4316C118.163 32.903 118.473 32.151 118.473 31.1758V29.918ZM135.604 21.4277C137.235 21.4277 138.548 21.8743 139.541 22.7676C140.535 23.6517 141.031 25.0736 141.031 27.0332V37H136.861V28.0723C136.861 26.9785 136.661 26.1536 136.26 25.5977C135.868 25.0417 135.248 24.7637 134.4 24.7637C133.124 24.7637 132.254 25.1966 131.789 26.0625C131.324 26.9284 131.092 28.1771 131.092 29.8086V37H126.922V21.7148H130.107L130.668 23.6699H130.9C131.229 23.1413 131.634 22.7129 132.117 22.3848C132.609 22.0566 133.152 21.8151 133.744 21.6602C134.346 21.5052 134.965 21.4277 135.604 21.4277ZM151.764 33.9512C152.219 33.9512 152.661 33.9056 153.09 33.8145C153.527 33.7233 153.96 33.6094 154.389 33.4727V36.5762C153.942 36.7767 153.386 36.9408 152.721 37.0684C152.064 37.2051 151.344 37.2734 150.561 37.2734C149.649 37.2734 148.829 37.1276 148.1 36.8359C147.38 36.5352 146.81 36.0202 146.391 35.291C145.98 34.5527 145.775 33.5273 145.775 32.2148V24.8457H143.779V23.082L146.076 21.6875L147.279 18.4609H149.945V21.7148H154.225V24.8457H149.945V32.2148C149.945 32.7982 150.109 33.2357 150.438 33.5273C150.775 33.8099 151.217 33.9512 151.764 33.9512ZM163.795 21.4277C165.208 21.4277 166.424 21.7012 167.445 22.248C168.466 22.7858 169.255 23.5697 169.811 24.5996C170.367 25.6296 170.645 26.8874 170.645 28.373V30.3965H160.787C160.833 31.5723 161.184 32.4974 161.84 33.1719C162.505 33.8372 163.426 34.1699 164.602 34.1699C165.577 34.1699 166.47 34.0697 167.281 33.8691C168.092 33.6686 168.926 33.3678 169.783 32.9668V36.1934C169.027 36.5671 168.234 36.8405 167.404 37.0137C166.584 37.1868 165.586 37.2734 164.41 37.2734C162.879 37.2734 161.521 36.9909 160.336 36.4258C159.16 35.8607 158.235 34.9993 157.561 33.8418C156.895 32.6842 156.562 31.2259 156.562 29.4668C156.562 27.6803 156.863 26.1947 157.465 25.0098C158.076 23.8158 158.923 22.9225 160.008 22.3301C161.092 21.7285 162.355 21.4277 163.795 21.4277ZM163.822 24.3945C163.011 24.3945 162.337 24.6543 161.799 25.1738C161.27 25.6934 160.965 26.5091 160.883 27.6211H166.734C166.725 27.0013 166.611 26.4499 166.393 25.9668C166.183 25.4837 165.864 25.1009 165.436 24.8184C165.016 24.5358 164.479 24.3945 163.822 24.3945ZM180.338 21.4277C181.751 21.4277 182.967 21.7012 183.988 22.248C185.009 22.7858 185.798 23.5697 186.354 24.5996C186.91 25.6296 187.188 26.8874 187.188 28.373V30.3965H177.33C177.376 31.5723 177.727 32.4974 178.383 33.1719C179.048 33.8372 179.969 34.1699 181.145 34.1699C182.12 34.1699 183.013 34.0697 183.824 33.8691C184.635 33.6686 185.469 33.3678 186.326 32.9668V36.1934C185.57 36.5671 184.777 36.8405 183.947 37.0137C183.127 37.1868 182.129 37.2734 180.953 37.2734C179.422 37.2734 178.064 36.9909 176.879 36.4258C175.703 35.8607 174.778 34.9993 174.104 33.8418C173.438 32.6842 173.105 31.2259 173.105 29.4668C173.105 27.6803 173.406 26.1947 174.008 25.0098C174.618 23.8158 175.466 22.9225 176.551 22.3301C177.635 21.7285 178.898 21.4277 180.338 21.4277ZM180.365 24.3945C179.554 24.3945 178.88 24.6543 178.342 25.1738C177.813 25.6934 177.508 26.5091 177.426 27.6211H183.277C183.268 27.0013 183.154 26.4499 182.936 25.9668C182.726 25.4837 182.407 25.1009 181.979 24.8184C181.559 24.5358 181.021 24.3945 180.365 24.3945ZM199.26 21.4277C200.891 21.4277 202.204 21.8743 203.197 22.7676C204.191 23.6517 204.688 25.0736 204.688 27.0332V37H200.518V28.0723C200.518 26.9785 200.317 26.1536 199.916 25.5977C199.524 25.0417 198.904 24.7637 198.057 24.7637C196.781 24.7637 195.91 25.1966 195.445 26.0625C194.98 26.9284 194.748 28.1771 194.748 29.8086V37H190.578V21.7148H193.764L194.324 23.6699H194.557C194.885 23.1413 195.29 22.7129 195.773 22.3848C196.266 22.0566 196.808 21.8151 197.4 21.6602C198.002 21.5052 198.622 21.4277 199.26 21.4277Z" fill="#F1416C"/>
</svg>
